<svg width="173" height="40" viewBox="0 0 173 40" fill="none" xmlns="http://www.w3.org/2000/svg">
  <path
    d="M 56.8 21.3 C 56.8 20 57.1 18.8 57.6 17.7 C 58.1 16.7 58.9 15.9 59.8 15.3 C 60.7 14.8 61.8 14.5 62.9 14.5 C 63.8 14.5 64.6 14.7 65.4 15.1 C 66.1 15.4 66.8 15.9 67.2 16.6 V 10.2 H 70.6 V 28 H 67.2 V 26 C 66.8 26.7 66.2 27.2 65.5 27.6 C 64.7 28 63.9 28.2 62.9 28.2 C 61.7 28.2 60.7 27.9 59.8 27.4 C 58.9 26.8 58.1 26 57.6 24.9 C 57.1 23.9 56.8 22.7 56.8 21.3 Z M 67.3 21.4 C 67.3 20.5 67.1 19.8 66.8 19.3 C 66.5 18.7 66 18.2 65.5 17.9 C 64.9 17.6 64.4 17.4 63.7 17.4 C 63.1 17.4 62.5 17.6 62 17.9 C 61.5 18.2 61 18.6 60.7 19.2 C 60.4 19.8 60.2 20.5 60.2 21.3 C 60.2 22.1 60.4 22.8 60.7 23.4 C 61 24 61.5 24.5 62 24.8 C 62.5 25.1 63.1 25.3 63.7 25.3 C 64.4 25.3 64.9 25.1 65.5 24.8 C 66 24.5 66.5 24 66.8 23.5 C 67.1 22.9 67.3 22.2 67.3 21.4 Z"
    fill="black" />
  <path
    d="M 77.8 17.5 V 23.9 C 77.8 24.3 77.9 24.7 78.1 24.9 C 78.4 25.1 78.7 25.2 79.2 25.2 H 80.8 V 28 H 78.7 C 75.9 28 74.4 26.6 74.4 23.9 V 17.5 H 72.9 V 14.7 H 74.4 V 11.4 H 77.8 V 14.7 H 80.8 V 17.5 H 77.8 Z"
    fill="black" />
  <path
    d="M 105.5 14.5 C 107.1 14.5 108.4 15 109.4 16 C 110.4 17 110.9 18.4 110.9 20.2 V 28 H 107.5 V 20.7 C 107.5 19.6 107.3 18.8 106.8 18.3 C 106.2 17.7 105.5 17.4 104.6 17.4 C 103.7 17.4 103 17.7 102.4 18.3 C 101.9 18.8 101.6 19.6 101.6 20.7 V 28 H 98.3 V 20.7 C 98.3 19.6 98 18.8 97.5 18.3 C 96.9 17.7 96.2 17.4 95.3 17.4 C 94.4 17.4 93.6 17.7 93.1 18.3 C 92.6 18.8 92.3 19.6 92.3 20.7 V 28 H 88.9 V 14.7 H 92.3 V 16.3 C 92.7 15.8 93.3 15.3 94 15 C 94.6 14.7 95.4 14.5 96.2 14.5 C 97.3 14.5 98.2 14.7 99 15.2 C 99.8 15.6 100.4 16.2 100.9 17.1 C 101.3 16.3 102 15.7 102.8 15.2 C 103.6 14.7 104.5 14.5 105.5 14.5 Z"
    fill="black" />
  <path
    d="M 120 28.2 C 118.7 28.2 117.6 27.9 116.5 27.4 C 115.5 26.8 114.7 26 114.1 25 C 113.5 23.9 113.3 22.7 113.3 21.4 C 113.3 20 113.5 18.8 114.1 17.8 C 114.7 16.7 115.6 15.9 116.6 15.4 C 117.7 14.8 118.8 14.5 120.1 14.5 C 121.4 14.5 122.5 14.8 123.6 15.4 C 124.6 15.9 125.4 16.7 126 17.8 C 126.6 18.8 126.9 20 126.9 21.4 C 126.9 22.7 126.6 23.9 126 25 C 125.4 26 124.6 26.8 123.5 27.4 C 122.5 27.9 121.3 28.2 120 28.2 Z M 120 25.3 C 120.6 25.3 121.2 25.1 121.7 24.9 C 122.2 24.6 122.7 24.1 123 23.5 C 123.3 22.9 123.5 22.2 123.5 21.4 C 123.5 20.1 123.1 19.1 122.5 18.4 C 121.8 17.8 121 17.4 120 17.4 C 119.1 17.4 118.3 17.8 117.6 18.4 C 117 19.1 116.7 20.1 116.7 21.4 C 116.7 22.6 117 23.6 117.6 24.3 C 118.2 25 119 25.3 120 25.3 Z"
    fill="black" />
  <path
    d="M 136.8 14.5 C 138.3 14.5 139.6 15 140.6 16 C 141.6 17 142.1 18.4 142.1 20.2 V 28 H 138.7 V 20.7 C 138.7 19.6 138.4 18.8 137.9 18.2 C 137.4 17.7 136.7 17.4 135.8 17.4 C 134.8 17.4 134.1 17.7 133.6 18.2 C 133 18.8 132.8 19.6 132.8 20.7 V 28 H 129.4 V 14.7 H 132.8 V 16.4 C 133.2 15.8 133.8 15.3 134.5 15 C 135.2 14.7 135.9 14.5 136.8 14.5 Z"
    fill="black" />
  <path
    d="M 157.6 21.1 C 157.6 21.5 157.6 22 157.5 22.4 H 147.8 C 147.9 23.3 148.2 24.1 148.8 24.6 C 149.4 25.2 150.1 25.4 151 25.4 C 152.2 25.4 153.1 24.9 153.7 23.8 H 157.3 C 156.9 25.1 156.2 26.2 155.1 27 C 154 27.8 152.7 28.2 151.1 28.2 C 149.8 28.2 148.6 27.9 147.6 27.4 C 146.6 26.8 145.8 26 145.2 25 C 144.7 23.9 144.4 22.7 144.4 21.4 C 144.4 20 144.7 18.8 145.2 17.7 C 145.8 16.7 146.6 15.9 147.6 15.3 C 148.6 14.8 149.8 14.5 151.1 14.5 C 152.3 14.5 153.5 14.8 154.5 15.3 C 155.5 15.8 156.2 16.6 156.8 17.6 C 157.3 18.6 157.6 19.8 157.6 21.1 Z M 154.1 20.1 C 154.1 19.2 153.8 18.6 153.2 18 C 152.6 17.5 151.9 17.2 151 17.2 C 150.1 17.2 149.4 17.5 148.9 18 C 148.3 18.5 148 19.2 147.8 20.1 H 154.1 Z"
    fill="black" />
  <path d="M 172.8 14.7 L 164.6 34.3 H 161 L 163.9 27.7 L 158.5 14.7 H 162.3 L 165.7 24 L 169.2 14.7 H 172.8 Z"
    fill="black" />
  <path
    d="M 34.1 5.9 C 30.4 2.1 25.3 0 20 0 C 14.7 0 9.6 2.1 5.9 5.9 C 2.1 9.6 0 14.7 0 20 C 0 25.3 2.1 30.4 5.9 34.1 C 9.6 37.9 14.7 40 20 40 C 25.3 40 30.4 37.9 34.1 34.1 C 37.9 30.4 40 25.3 40 20 C 40 14.7 37.9 9.6 34.1 5.9 Z"
    fill="#33cc95" />
  <g clip-path="url(#clip0)">
    <path d="M 20.6 8 V 33.1" stroke="white" stroke-width="2" stroke-linecap="round" stroke-linejoin="round" />
    <path
      d="M 26.3 12.6 H 17.7 C 16.7 12.6 15.6 13 14.9 13.7 C 14.1 14.5 13.7 15.5 13.7 16.6 C 13.7 17.6 14.1 18.6 14.9 19.4 C 15.6 20.1 16.7 20.6 17.7 20.6 H 23.4 C 24.5 20.6 25.5 21 26.3 21.7 C 27 22.5 27.4 23.5 27.4 24.6 C 27.4 25.6 27 26.6 26.3 27.4 C 25.5 28.1 24.5 28.6 23.4 28.6 H 13.7"
      stroke="white" stroke-width="2" stroke-linecap="round" stroke-linejoin="round" />
  </g>
  <defs>
    <clipPath id="clip0">
      <rect width="27.4" height="27.4" fill="black" transform="translate(6.9,6.9)" />
    </clipPath>
  </defs>
</svg>